HIERARCHY
ROOT hip
{
  OFFSET 0.0 0.0 0.0
  CHANNELS 6 Xposition Yposition Zposition Zrotation Yrotation Xrotation
  JOINT torso
  {
    OFFSET 0.0 0.0 0.0
    CHANNELS 3 Zrotation Xrotation Yrotation
    JOINT neck
    {
      OFFSET -31.42098999999993 328.8025209999999 74.3554680000002
      CHANNELS 3 Zrotation Xrotation Yrotation
      JOINT head
      {
        OFFSET 3.3519900000001144 303.81732099999994 206.53942900000015
        CHANNELS 3 Zrotation Xrotation Yrotation
        End Site
        {
          OFFSET 0.0 0.0 0.0
        }
      }
    }
    JOINT left_collar
    {
      OFFSET -31.42098999999993 328.8025209999999 74.3554680000002
      CHANNELS 3 Zrotation Xrotation Yrotation
      JOINT left_upper_arm
      {
        OFFSET -124.490479 -8.162841999999841 8.226441000000023
        CHANNELS 3 Zrotation Xrotation Yrotation
        JOINT left_forearm
        {
          OFFSET -253.595764 -1.5758060000000569 105.0729980000001
          CHANNELS 3 Zrotation Xrotation Yrotation
          JOINT left_hand
          {
            OFFSET -269.48803699999996 0.1478270000000066 -55.346191999999974
            CHANNELS 3 Zrotation Xrotation Yrotation
            End Site
            {
              OFFSET 0.0 0.0 0.0
            }
          }
        }
      }
    }
    JOINT right_collar
    {
      OFFSET -31.42098999999993 328.8025209999999 74.3554680000002
      CHANNELS 3 Zrotation Xrotation Yrotation
      JOINT right_upper_arm
      {
        OFFSET 162.02484099999998 0.46441600000002836 2.2303470000001653
        CHANNELS 3 Zrotation Xrotation Yrotation
        JOINT right_forearm
        {
          OFFSET 240.01246700000004 -25.835875999999985 121.34179699999959
          CHANNELS 3 Zrotation Xrotation Yrotation
          JOINT right_hand
          {
            OFFSET 252.48539699999992 18.910399999999868 -67.53466800000001
            CHANNELS 3 Zrotation Xrotation Yrotation
            End Site
            {
              OFFSET 0.0 0.0 0.0
            }
          }
        }
      }
    }
  }
}
MOTION
Frames: 8
Frame Time: 0.01
-215.29130357428232 218.15675602482366 1452.4803626746632 1.8382436958152075 1.7167361074534135 -6.062191297824985 0.07654171560869207 -2.9108086626523075 -0.2957947927477825 -5.831835864875298 -5.295377800158238 4.1658626535691266 0.0 0.0 0.0 5.866201523264785 -1.04818224456015 12.281849600592519 43.43866852362248 10.265588575316663 19.382236140416477 48.184333351397136 -3.363910743823433 -15.714271260188289 0.0 0.0 0.0 1.0551418114978817 -0.10350913206698742 7.351728668100053 -31.136248486520646 5.878826281667001 -24.910148901974683 -72.89688508837362 -9.747917536160415 17.810219544050383 0.0 0.0 0.0
-215.14128940542335 218.09942561842107 1452.5021616330664 1.8481361079512566 1.7097620864634258 -6.08058318813467 0.051001265008744245 -2.9066539154101694 -0.2890058514641001 -5.809526699184708 -5.291923221620882 4.149996914248364 0.0 0.0 0.0 5.905584153665458 -1.0414874641883438 12.210741496478764 43.39753136480606 10.237804282167035 19.422501083519265 48.06497192403308 -3.38220216655426 -15.65236938762742 0.0 0.0 0.0 1.0493577485463872 -0.10368039776573108 7.403222345405129 -31.227994935338295 5.835618115115018 -25.08457353240931 -72.65116563000598 -9.656565806584865 17.89788176326881 0.0 0.0 0.0
-214.98828010466113 218.04250208307295 1452.523589887643 1.8583560873865654 1.7019785009933457 -6.098797382447402 0.0255284033499326 -2.9024137177256333 -0.2822277495861808 -5.787443218215434 -5.287337146969571 4.134250606910672 0.0 0.0 0.0 5.944819407752241 -1.0347543942320108 12.139776061833775 43.35549094396388 10.21056200932836 19.46101245957036 47.94484591637875 -3.401301030170102 -15.588194481949113 0.0 0.0 0.0 1.0429825415508989 -0.10377629989894191 7.4527662903034235 -31.323960606440675 5.79221055403014 -25.261825403485403 -72.39695731052545 -9.563304795953645 17.98762519065458 0.0 0.0 0.0
-214.83173645058181 217.98562753532545 1452.5440308759696 1.8687807417002886 1.6928992387996298 -6.116625776239551 0.0004214621662886453 -2.8978628013972685 -0.27551388610583455 -5.765834356267057 -5.281333685407072 4.118789404737295 0.0 0.0 0.0 5.983111593839629 -1.0279947739162603 12.069319868988867 43.31266945059738 10.184087540962791 19.497306315611784 47.824322491777565 -3.421458151704983 -15.521226919324107 0.0 0.0 0.0 1.036281320977862 -0.10381126056299778 7.499844942692106 -31.427447837589966 5.74836194088173 -25.444772110601257 -72.12841278926133 -9.467020306241762 18.079992785028622 0.0 0.0 0.0
-214.67115816302405 217.92833922924882 1452.5628373882653 1.8792809180048506 1.6820527767571702 -6.133854357220253 -0.024036333958692726 -2.892793479128565 -0.2689156638319593 -5.74493867327425 -5.273629583366272 4.103771811287358 0.0 0.0 0.0 6.019685794119893 -1.0212216439402086 11.999722859904168 43.26916866883473 10.158595923180368 19.530928671737993 47.703777328721344 -3.4429137272501573 -15.450968776927054 0.0 0.0 0.0 1.0295289175200597 -0.103801735618137 7.543997500128729 -31.541381567469458 5.703821358251518 -25.635955687959374 -71.84034065504652 -9.366572719479073 18.17578746266535 0.0 0.0 0.0
-214.50612882483253 217.8700756662054 1452.579342554216 1.889722989429375 1.668998834935595 -6.150265526080835 -0.04758483804032293 -2.8870248249550468 -0.2624813278696595 -5.724977980691673 -5.263953152053387 4.089344958739868 0.0 0.0 0.0 6.053809506046391 -1.0144496491876824 11.931315290355077 43.225069998103216 10.134287426357476 19.561445338202702 47.583601326785036 -3.465886015326348 -15.376971309701634 0.0 0.0 0.0 1.0230026046984597 -0.10376576301482197 7.5848332881109375 -31.66816062481277 5.658343343816859 -25.83745482276056 -71.52847428017009 -9.260847484601143 18.276056219789776 0.0 0.0 0.0
-214.33635919066438 217.8101850365745 1452.5928710065566 1.8999701970509004 1.6533437230308894 -6.165640195655529 -0.06999358506062416 -2.8804108896665666 -0.2562550415020501 -5.7061516011407685 -5.252052726075115 4.075640829967663 0.0 0.0 0.0 6.084811932176541 -1.0076953075000301 11.864406167211367 43.18043642201711 10.111344012721547 19.588451814869664 47.464206358884084 -3.4905605857165227 -15.298861585979061 0.0 0.0 0.0 1.0169754343164035 -0.10372249572527657 7.622045546250343 -31.80953076543989 5.611702796469803 -26.05076752466398 -71.18970259184368 -9.148806569980069 18.382061457855556 0.0 0.0 0.0
-214.16172693300743 217.74793582662878 1452.6027498728022 1.9098834842364902 1.6347537362839084 -6.179759630753478 -0.09106671981825058 -2.872847601735626 -0.2502762504195611 -5.6886315170292905 -5.237704291034555 4.062773074664886 0.0 0.0 0.0 6.1121002150382635 -1.0009772504516556 11.799283224489614 43.13531637041861 10.089926410092371 19.611582978627528 47.34602948798953 -3.517080557002021 -15.216367171085885 0.0 0.0 0.0 1.011710403947544 -0.10369174501452365 7.655423093551117 -31.966485440037804 5.563710376793454 -26.276719524209366 -70.82225191156613 -9.029540455951862 18.495236730558055 0.0 0.0 0.0
